<svg xmlns="http://www.w3.org/2000/svg" xmlns:xlink="http://www.w3.org/1999/xlink" width="172.469" height="121.838" viewBox="0 0 172.469 121.838">
  <defs>
    <linearGradient id="linear-gradient" x1="-1.789" y1="0.531" x2="11.128" y2="0.372" gradientUnits="objectBoundingBox">
      <stop offset="0" stop-color="#42eee7"/>
      <stop offset="1" stop-color="#00ad70"/>
    </linearGradient>
    <linearGradient id="linear-gradient-2" x1="-4.079" y1="0.538" x2="14.319" y2="0.387" xlink:href="#linear-gradient"/>
    <linearGradient id="linear-gradient-3" x1="-5.455" y1="0.548" x2="13.27" y2="0.388" xlink:href="#linear-gradient"/>
    <linearGradient id="linear-gradient-4" x1="-23.991" y1="0.558" x2="42.883" y2="0.399" xlink:href="#linear-gradient"/>
    <linearGradient id="linear-gradient-5" x1="-7.34" y1="0.567" x2="11.385" y2="0.407" xlink:href="#linear-gradient"/>
    <linearGradient id="linear-gradient-6" x1="-5.806" y1="0.58" x2="7.111" y2="0.421" xlink:href="#linear-gradient"/>
    <linearGradient id="linear-gradient-7" x1="-8.254" y1="0.586" x2="7.225" y2="0.435" xlink:href="#linear-gradient"/>
    <linearGradient id="linear-gradient-8" x1="-95.375" y1="0.598" x2="60.641" y2="0.439" xlink:href="#linear-gradient"/>
    <linearGradient id="linear-gradient-9" x1="-8.449" y1="0.601" x2="4.926" y2="0.45" xlink:href="#linear-gradient"/>
    <linearGradient id="linear-gradient-10" x1="-12.971" y1="0.619" x2="5.032" y2="0.46" xlink:href="#linear-gradient"/>
    <linearGradient id="linear-gradient-11" x1="-18.591" y1="0.63" x2="4.814" y2="0.471" xlink:href="#linear-gradient"/>
    <linearGradient id="linear-gradient-12" x1="-16" y1="0.631" x2="2.905" y2="0.481" xlink:href="#linear-gradient"/>
    <linearGradient id="linear-gradient-13" x1="0.175" y1="0.23" x2="0.885" y2="1.132" gradientUnits="objectBoundingBox">
      <stop offset="0" stop-color="#42eee7"/>
      <stop offset="0.76" stop-color="#00cab4"/>
    </linearGradient>
    <linearGradient id="linear-gradient-14" x1="0.757" y1="1.432" x2="0.371" y2="-0.002" xlink:href="#linear-gradient"/>
    <linearGradient id="linear-gradient-15" x1="0.904" y1="-0.351" x2="0.235" y2="0.83" gradientUnits="objectBoundingBox">
      <stop offset="0" stop-color="#42eee7"/>
      <stop offset="1" stop-color="#00ca95"/>
    </linearGradient>
    <linearGradient id="linear-gradient-16" x1="0.93" y1="0.026" x2="-0.025" y2="1.08" xlink:href="#linear-gradient"/>
    <linearGradient id="linear-gradient-17" x1="0.925" y1="-0.026" x2="0.093" y2="1.004" xlink:href="#linear-gradient"/>
  </defs>
  <g id="Grupo_17" data-name="Grupo 17" transform="translate(-6104 5058.845)">
    <g id="Grupo_1020" data-name="Grupo 1020" transform="translate(6104 -4966.93)">
      <g id="Grupo_7" data-name="Grupo 7" transform="translate(0 0)">
        <path id="Trazado_10" data-name="Trazado 10" d="M505.852,120.833h-8.213l-.911,1.931H492.95l7.515-15.934h2.518l7.515,15.934H506.76l-.911-1.931Zm-1.589-3.381-2.518-5.33-2.518,5.33h5.037Z" transform="translate(-492.95 -106.346)" fill="url(#linear-gradient)"/>
        <path id="Trazado_11" data-name="Trazado 11" d="M622.081,115.111a4.44,4.44,0,0,0,3.525,1.989,3.645,3.645,0,0,0,1.878-.435,1.417,1.417,0,0,0,.736-1.3,1.358,1.358,0,0,0-.872-1.158l-3.739-.908a5.9,5.9,0,0,1-2.77-1.748,3.965,3.965,0,0,1-1.045-2.656,4.823,4.823,0,0,1,1.695-3.862,5.879,5.879,0,0,1,3.942-1.449,7.314,7.314,0,0,1,5.7,2.51l-2.634,2.105a3.762,3.762,0,0,0-2.886-1.236,2.894,2.894,0,0,0-1.792.482,1.426,1.426,0,0,0-.63,1.158q0,.967,1.317,1.526l3.759.889q3.351,1.255,3.351,4.346a4.885,4.885,0,0,1-1.55,3.582,6.066,6.066,0,0,1-4.456,1.535A7.29,7.29,0,0,1,619.29,117l2.789-1.892Z" transform="translate(-600.425 -103.58)" fill="url(#linear-gradient-2)"/>
        <path id="Trazado_12" data-name="Trazado 12" d="M728.409,119.384v3.38h-3.39V106.83h5.81a6.277,6.277,0,1,1,0,12.554Zm0-9.175V116h2.42a2.9,2.9,0,1,0,0-5.795Z" transform="translate(-690.366 -106.346)" fill="url(#linear-gradient-3)"/>
        <path id="Trazado_13" data-name="Trazado 13" d="M830.749,106.83v15.934h-3.39V106.83Z" transform="translate(-777.425 -106.346)" fill="url(#linear-gradient-4)"/>
        <path id="Trazado_14" data-name="Trazado 14" d="M881.208,119.384v3.38h-3.39V106.83h5.81a6.279,6.279,0,0,1,4.456,10.72,6.64,6.64,0,0,1-.794.676l2.634,4.538h-3.912l-1.956-3.4c-.142.013-.284.019-.427.019Zm0-9.175V116h2.421a2.9,2.9,0,1,0,0-5.795Z" transform="translate(-820.349 -106.346)" fill="url(#linear-gradient-5)"/>
        <path id="Trazado_15" data-name="Trazado 15" d="M978.011,120.833H969.8l-.911,1.931h-3.778l7.515-15.934h2.517l7.516,15.934h-3.739l-.911-1.931Zm-1.587-3.381-2.518-5.33-2.517,5.33h5.036Z" transform="translate(-894.606 -106.346)" fill="url(#linear-gradient-6)"/>
        <path id="Trazado_16" data-name="Trazado 16" d="M1105.74,116.943l1.084.966-.116.116a8.449,8.449,0,1,1,0-11.954l.175.174-1.045,1c-.052-.051-.1-.1-.155-.155a7,7,0,1,0,0,9.909l.058-.058Z" transform="translate(-1002.751 -103.597)" fill="url(#linear-gradient-7)"/>
        <path id="Trazado_17" data-name="Trazado 17" d="M1212.262,106.83v15.934h-1.453V106.83Z" transform="translate(-1103.616 -106.346)" fill="url(#linear-gradient-8)"/>
        <path id="Trazado_18" data-name="Trazado 18" d="M1258.756,112.029a8.45,8.45,0,1,1-2.479-5.968A8.14,8.14,0,0,1,1258.756,112.029Zm-8.463-6.992a7,7,0,1,0,7.012,6.992,7,7,0,0,0-7.012-6.992Z" transform="translate(-1129.987 -103.588)" fill="url(#linear-gradient-9)"/>
        <path id="Trazado_19" data-name="Trazado 19" d="M1376.57,106.83h1.084l10.052,13.076V106.83h1.453v15.934h-1.1l-10.033-13.056v13.056h-1.453V106.83Z" transform="translate(-1244.625 -106.346)" fill="url(#linear-gradient-10)"/>
        <path id="Trazado_20" data-name="Trazado 20" d="M1498.343,106.822v1.449h-8.232v5.793h6.3v1.449h-6.3v5.793h8.232v1.449h-9.685V106.82h9.685Z" transform="translate(-1339.977 -106.338)" fill="url(#linear-gradient-11)"/>
        <path id="Trazado_21" data-name="Trazado 21" d="M1577.713,106.768a5.26,5.26,0,0,0-1.763-1.227,5.683,5.683,0,0,0-2.383-.512,4.173,4.173,0,0,0-2.75.85,2.525,2.525,0,0,0-1.026,1.989,2.5,2.5,0,0,0,.745,1.806,4.518,4.518,0,0,0,1.87,1.13l3.99,1.1a4.807,4.807,0,0,1,2.344,1.487,4.1,4.1,0,0,1-.62,5.775,6.212,6.212,0,0,1-4.184,1.313,7.264,7.264,0,0,1-3.767-.956,7.019,7.019,0,0,1-2.508-2.443l1.258-.792a5.513,5.513,0,0,0,2.2,2.028,6.013,6.013,0,0,0,2.781.715,4.8,4.8,0,0,0,3.206-.928,2.735,2.735,0,0,0,1.075-2.105,2.6,2.6,0,0,0-.63-1.729,3.3,3.3,0,0,0-1.753-1.033l-3.739-1.063a6.132,6.132,0,0,1-2.673-1.642,3.8,3.8,0,0,1-1.045-2.684,3.882,3.882,0,0,1,1.433-3,5.529,5.529,0,0,1,3.8-1.266,7.146,7.146,0,0,1,3.2.685,7.253,7.253,0,0,1,2.267,1.671l-1.317.831Z" transform="translate(-1407.182 -103.58)" fill="url(#linear-gradient-12)"/>
      </g>
    </g>
    <g id="Grupo_1021" data-name="Grupo 1021" transform="translate(6154.44 -4942.59)">
      <g id="Grupo_8" data-name="Grupo 8" transform="translate(0 0)">
        <path id="Trazado_22" data-name="Trazado 22" d="M500.794,268.41v5.426h-1.01v-2.325h-2.814v2.325h-1.01V268.41h1.01v2.24h2.814v-2.24Z" transform="translate(-495.959 -268.333)" fill="#009d89"/>
        <path id="Trazado_23" data-name="Trazado 23" d="M539.96,271.473V268.41h1.01v3.024c0,1.116.505,1.6,1.384,1.6s1.377-.481,1.377-1.6V268.41h1v3.062a2.384,2.384,0,1,1-4.766,0Z" transform="translate(-533.384 -268.333)" fill="#009d89"/>
        <path id="Trazado_24" data-name="Trazado 24" d="M588.49,273.844l-.008-3.6-1.789,2.977h-.451l-1.789-2.93v3.55h-.964V268.42h.832l2.161,3.6,2.122-3.6h.832l.007,5.426h-.957Z" transform="translate(-570.407 -268.341)" fill="#009d89"/>
        <path id="Trazado_25" data-name="Trazado 25" d="M634.509,272.581h-2.722l-.536,1.255h-1.042l2.45-5.426h1l2.457,5.426h-1.057l-.544-1.255Zm-.335-.791-1.027-2.372-1.018,2.372Z" transform="translate(-610.145 -268.333)" fill="#009d89"/>
        <path id="Trazado_26" data-name="Trazado 26" d="M681.336,268.41v5.426H680.5l-3-3.675v3.675h-1V268.41h.832l3,3.675V268.41Z" transform="translate(-649.517 -268.333)" fill="#009d89"/>
        <path id="Trazado_27" data-name="Trazado 27" d="M734.77,270.681a2.946,2.946,0,0,1,5.069-1.884l-.653.612a1.914,1.914,0,0,0-1.454-.636,1.908,1.908,0,1,0,0,3.815,1.9,1.9,0,0,0,1.454-.644l.653.62a2.946,2.946,0,0,1-5.069-1.884Z" transform="translate(-699.078 -267.89)" fill="#009d89"/>
        <path id="Trazado_28" data-name="Trazado 28" d="M775.729,272.581h-2.722l-.536,1.255H771.43l2.449-5.426h1l2.457,5.426h-1.058Zm-.333-.791-1.027-2.372-1.018,2.372Z" transform="translate(-730.259 -268.333)" fill="#009d89"/>
        <path id="Trazado_29" data-name="Trazado 29" d="M822.287,270.34c0,1.194-.886,1.931-2.318,1.931h-1.229v1.565h-1.01V268.41h2.239C821.4,268.41,822.287,269.139,822.287,270.34Zm-1.019,0c0-.683-.459-1.077-1.345-1.077h-1.182v2.155h1.182C820.809,271.417,821.268,271.023,821.268,270.34Z" transform="translate(-769.64 -268.333)" fill="#009d89"/>
        <path id="Trazado_30" data-name="Trazado 30" d="M857.16,268.41h1.01v5.426h-1.01Z" transform="translate(-803.177 -268.333)" fill="#009d89"/>
        <path id="Trazado_31" data-name="Trazado 31" d="M873.054,269.263h-1.8v-.852h4.618v.852h-1.8v4.574h-1.01Z" transform="translate(-815.161 -268.333)" fill="#009d89"/>
        <path id="Trazado_32" data-name="Trazado 32" d="M906.769,272.581h-2.722l-.537,1.255h-1.042l2.45-5.426h1l2.457,5.426h-1.058l-.544-1.255Zm-.335-.791-1.027-2.372-1.018,2.372Z" transform="translate(-841.713 -268.333)" fill="#009d89"/>
        <path id="Trazado_33" data-name="Trazado 33" d="M948.77,268.41h1.01v4.574h2.846v.852H948.77Z" transform="translate(-881.094 -268.333)" fill="#009d89"/>
      </g>
    </g>
    <g id="Grupo_1011" data-name="Grupo 1011" transform="translate(6144.614 -5058.845)">
      <path id="Trazado_6" data-name="Trazado 6" d="M320.25,99.1c6.8,9.351,21.786,31.509,21.831,45.137,0,0-.372,11.2-7.328,12.182s-11.018-11.843-11.018-11.843,5.415,2.7,4.062-10.125c0,0-4.3-23.054-8.107-34.157" transform="translate(-250.499 -77.714)" fill="url(#linear-gradient-13)"/>
      <path id="Trazado_7" data-name="Trazado 7" d="M252.77,236.518s5.415-2.7,10.155,8.1c0,0,12.187,28.352,24.372,12.152,0,0-9.2,3.9-14.414-8.852s-8.625-14.435-8.625-14.435L252.45,231.84l.32,4.681Z" transform="translate(-197.811 -181.808)" fill="url(#linear-gradient-14)"/>
      <path id="Trazado_8" data-name="Trazado 8" d="M79.06,248.872h0c.022.024,3.357,3.563,14.152-5.857,0,0,23.695-20.926,36.559-10.126,0,0-9.477-4.726-20.31,10.8s-20,16.71-20,16.71h0l-10.4-1.306h0v-10.22Z" transform="translate(-61.948 -180.203)" fill="url(#linear-gradient-15)"/>
      <path id="Trazado_9" data-name="Trazado 9" d="M63.757,2.729S53.6-2.671,42.43,1.717c0,0-56.261,47.716-39.219,74.456a10.185,10.185,0,0,0,3.2,3.159c3.881,2.421,13.25,6.7,23.563.017,0,0-21.729-5.063-9.544-30.04,0,0,24.034-37.465,43.329-46.579Z" transform="translate(0.004 0.002)" fill="url(#linear-gradient-16)"/>
      <ellipse id="Elipse_1" data-name="Elipse 1" cx="6.309" cy="6.291" rx="6.309" ry="6.291" transform="translate(51.16 29.099)" fill="url(#linear-gradient-17)"/>
    </g>
  </g>
</svg>
